# File created by Blade
# Date/Time:  Wed Sep 24 19:42:34 2014
# Frame Rate: 120.000 fps
#------------------------------------------------------
:FULLY-SPECIFIED
:DEGREES
2158
root -5.010328 33.074405 -3.532663 8.039708 2.250834 -1.983341
Spine -12.966705 12.790160 -7.450080
Head 22.547652 -11.728723 7.510805
LeftShoulder -14.571448 23.843789 5.307203
LeftArm 23.552024 23.629759 -61.541496
LeftForeArm 3.405792 -0.000000 27.469837
LeftHand -25.112789 0.000000 -5.709643
LeftHandThumb1 -26.253704 0.000000 33.147579
RightShoulder 262.764395 61.976631 193.492432
RightArm -8.274199 16.971159 43.802674
RightForeArm 36.072956 -0.000000 102.314828
RightHand -1.269477 -0.000000 -14.987226
RightHandThumb1 -24.326973 -0.000000 -32.862282
LeftUpLeg -2.747858 5.654341 6.356969
LeftLeg -1.888106 -0.000000 0.000000
LeftFoot -6.978629 4.035135 -19.989047
LeftToeBase 10.460254 -0.000000 -0.000000
RightUpLeg -4.636667 -7.790598 0.877611
RightLeg 1.587279 -0.000000 -0.000000
RightFoot -5.457987 -4.752665 -15.801542
RightToeBase 0.650278 -0.000000 -0.000000
2159
root -5.011619 33.075799 -3.521078 8.010288 2.249659 -1.988901
Spine -13.019958 12.736797 -7.462655
Head 22.553723 -11.764496 7.519301
LeftShoulder -14.595714 23.847932 5.292826
LeftArm 23.381945 23.453361 -61.644800
LeftForeArm 3.396470 0.000000 27.492075
LeftHand -25.112693 0.000000 -5.765196
LeftHandThumb1 -26.253704 0.000000 33.147579
RightShoulder 262.944549 61.937338 193.573547
RightArm -8.188622 16.905671 43.683433
RightForeArm 35.985956 -0.000000 98.713550
RightHand -2.125297 -0.000000 -16.529302
RightHandThumb1 -24.326973 -0.000000 -32.862282
LeftUpLeg -2.689945 5.639046 6.371790
LeftLeg -1.902707 -0.000000 0.000000
LeftFoot -6.974368 4.037314 -20.031953
LeftToeBase 10.437121 -0.000000 -0.000000
RightUpLeg -4.580041 -7.763988 0.877686
RightLeg 1.574063 -0.000000 -0.000000
RightFoot -5.449652 -4.774886 -15.772910
RightToeBase 0.644081 -0.000000 -0.000000
2160
root -5.013478 33.076935 -3.510266 7.975112 2.248933 -2.004818
Spine -13.073067 12.689187 -7.461145
Head 22.560161 -11.814638 7.497965
LeftShoulder -14.604684 23.865625 5.275210
LeftArm 23.246463 23.278413 -61.738162
LeftForeArm 3.408886 -0.000000 27.463207
LeftHand -25.083029 0.000000 -5.851759
LeftHandThumb1 -26.253704 0.000000 33.147579
RightShoulder 263.340383 61.938343 193.905139
RightArm -7.972187 16.886404 43.570828
RightForeArm 36.023358 0.000000 95.016135
RightHand -2.901685 -0.000000 -17.856760
RightHandThumb1 -24.326973 -0.000000 -32.862282
LeftUpLeg -2.633835 5.602573 6.399028
LeftLeg -1.906549 -0.000000 0.000000
LeftFoot -6.993872 4.068638 -20.022521
LeftToeBase 10.495403 -0.000000 -0.000000
RightUpLeg -4.516406 -7.744856 0.889781
RightLeg 1.552639 -0.000000 -0.000000
RightFoot -5.420633 -4.776366 -15.736068
RightToeBase 0.610050 -0.000000 -0.000000
2161
root -5.015781 33.077577 -3.498532 7.944397 2.243520 -2.018814
Spine -13.130699 12.639706 -7.485442
Head 22.563979 -11.842315 7.492989
LeftShoulder -14.638184 23.876752 5.276375
LeftArm 23.140912 23.178868 -61.799568
LeftForeArm 3.391444 -0.000000 27.444757
LeftHand -25.171079 -0.000000 -5.988674
LeftHandThumb1 -26.253704 0.000000 33.147579
RightShoulder 263.951059 61.955922 194.618201
RightArm -7.467342 16.871697 43.558869
RightForeArm 35.946808 -0.000000 91.257366
RightHand -3.778555 -0.000000 -20.015672
RightHandThumb1 -24.326973 -0.000000 -32.862282
LeftUpLeg -2.577488 5.573740 6.424110
LeftLeg -1.912610 -0.000000 0.000000
LeftFoot -7.007476 4.094219 -20.017262
LeftToeBase 10.492424 -0.000000 -0.000000
RightUpLeg -4.462559 -7.716866 0.899222
RightLeg 1.545642 -0.000000 -0.000000
RightFoot -5.413655 -4.798685 -15.710730
RightToeBase 0.635274 -0.000000 -0.000000
2162
root -5.018679 33.078441 -3.485477 7.893088 2.244166 -2.044173
Spine -13.181702 12.576002 -7.490150
Head 22.556758 -11.879698 7.467064
LeftShoulder -14.658871 23.899876 5.264237
LeftArm 23.052157 23.085292 -61.842348
LeftForeArm 3.366988 -0.000000 27.367892
LeftHand -25.125158 -0.000000 -6.008961
LeftHandThumb1 -26.253704 0.000000 33.147579
RightShoulder 264.477297 61.930139 195.174758
RightArm -7.095531 16.907098 43.579335
RightForeArm 35.706145 -0.000000 87.412478
RightHand -4.683036 -0.000000 -22.136743
RightHandThumb1 -24.326973 -0.000000 -32.862282
LeftUpLeg -2.499271 5.524373 6.467925
LeftLeg -1.919816 -0.000000 0.000000
LeftFoot -7.028399 4.101978 -20.075892
LeftToeBase 10.648414 -0.000000 -0.000000
RightUpLeg -4.381934 -7.712290 0.919230
RightLeg 1.532255 -0.000000 -0.000000
RightFoot -5.407506 -4.792852 -15.692973
RightToeBase 0.636231 -0.000000 -0.000000
2163
root -5.021401 33.079514 -3.472038 7.832832 2.230178 -2.068785
Spine -13.217132 12.514175 -7.512989
Head 22.580568 -11.899802 7.463752
LeftShoulder -14.694070 23.919413 5.247246
LeftArm 22.984118 23.023121 -61.852305
LeftForeArm 3.335659 -0.000000 27.293659
LeftHand -25.116202 -0.000000 -6.036995
LeftHandThumb1 -26.253704 0.000000 33.147579
RightShoulder 264.749089 61.902894 195.377795
RightArm -6.948189 16.781493 43.503613
RightForeArm 35.742359 -0.000000 83.564297
RightHand -5.226483 -0.000000 -24.585576
RightHandThumb1 -24.326973 -0.000000 -32.862282
LeftUpLeg -2.405053 5.498663 6.508403
LeftLeg -1.932597 -0.000000 0.000000
LeftFoot -7.047427 4.119470 -20.083374
LeftToeBase 10.501768 -0.000000 -0.000000
RightUpLeg -4.297597 -7.712229 0.938107
RightLeg 1.525685 -0.000000 -0.000000
RightFoot -5.396066 -4.767998 -15.687392
RightToeBase 0.612722 -0.000000 -0.000000
2164
root -5.024800 33.080206 -3.458608 7.778608 2.217272 -2.095516
Spine -13.276923 12.481638 -7.544395
Head 22.558108 -11.986000 7.393120
LeftShoulder -14.692950 23.941447 5.225819
LeftArm 22.939140 22.975223 -61.822313
LeftForeArm 3.338659 -0.000000 27.185250
LeftHand -25.035993 0.000000 -5.956473
LeftHandThumb1 -26.253704 0.000000 33.147579
RightShoulder 264.421004 61.862303 194.830907
RightArm -7.124787 16.366650 43.339895
RightForeArm 35.548146 -0.000000 79.689585
RightHand -5.934823 -0.000000 -27.215244
RightHandThumb1 -24.326973 -0.000000 -32.862282
LeftUpLeg -2.321834 5.447561 6.551448
LeftLeg -1.936402 -0.000000 0.000000
LeftFoot -7.070917 4.172781 -20.109095
LeftToeBase 10.451077 -0.000000 -0.000000
RightUpLeg -4.219946 -7.722361 0.961331
RightLeg 1.518589 -0.000000 -0.000000
RightFoot -5.394703 -4.736097 -15.647292
RightToeBase 0.592864 -0.000000 -0.000000
2165
root -5.029641 33.081646 -3.443649 7.705292 2.179256 -2.124775
Spine -13.343556 12.427498 -7.610968
Head 22.558112 -12.048068 7.443368
LeftShoulder -14.690868 23.967630 5.253685
LeftArm 22.851763 22.930661 -61.836003
LeftForeArm 3.359853 0.000000 27.095328
LeftHand -25.023428 -0.000000 -5.892035
LeftHandThumb1 -26.253704 0.000000 33.147579
RightShoulder 264.420932 61.846464 194.691053
RightArm -7.262474 16.212491 43.239732
RightForeArm 35.331124 -0.000000 75.859112
RightHand -6.814814 -0.000000 -29.347523
RightHandThumb1 -24.326973 -0.000000 -32.862282
LeftUpLeg -2.203908 5.443099 6.598573
LeftLeg -1.957500 -0.000000 0.000000
LeftFoot -7.076689 4.193325 -20.116313
LeftToeBase 10.456970 -0.000000 -0.000000
RightUpLeg -4.122921 -7.703548 0.984007
RightLeg 1.513629 -0.000000 -0.000000
RightFoot -5.381800 -4.716065 -15.625101
RightToeBase 0.585350 -0.000000 -0.000000
2166
root -5.034393 33.083033 -3.429643 7.629290 2.131526 -2.153912
Spine -13.412156 12.385392 -7.695068
Head 22.551670 -12.142092 7.466354
LeftShoulder -14.718078 24.019485 5.272689
LeftArm 22.863915 22.938747 -61.791362
LeftForeArm 3.299208 -0.000000 26.970429
LeftHand -25.151184 0.000000 -5.940698
LeftHandThumb1 -26.253704 0.000000 33.147579
RightShoulder 264.344527 61.848785 194.523959
RightArm -7.387006 16.072670 43.159718
RightForeArm 35.231861 -0.000000 72.007913
RightHand -7.363676 -0.000000 -31.160932
RightHandThumb1 -24.326973 -0.000000 -32.862282
LeftUpLeg -2.089733 5.474399 6.643673
LeftLeg -1.965988 -0.000000 0.000000
LeftFoot -7.081732 4.186860 -20.133118
LeftToeBase 10.465343 -0.000000 -0.000000
RightUpLeg -4.041740 -7.702995 1.006334
RightLeg 1.541443 -0.000000 -0.000000
RightFoot -5.386234 -4.667497 -15.605827
RightToeBase 0.539168 -0.000000 -0.000000
2167
root -5.039308 33.083744 -3.417886 7.564424 2.095569 -2.194653
Spine -13.485864 12.381758 -7.770646
Head 22.504804 -12.274413 7.447906
LeftShoulder -14.689415 24.116280 5.267307
LeftArm 22.909443 22.874740 -61.727297
LeftForeArm 3.278287 -0.000000 26.848854
LeftHand -25.112426 -0.000000 -6.002600
LeftHandThumb1 -26.253704 0.000000 33.147579
RightShoulder 264.969276 61.880986 195.075266
RightArm -7.405346 16.175134 43.092085
RightForeArm 35.264606 -0.000000 68.277163
RightHand -7.894899 -0.000000 -33.311166
RightHandThumb1 -24.326973 -0.000000 -32.862282
LeftUpLeg -1.996493 5.449845 6.702665
LeftLeg -1.965290 -0.000000 0.000000
LeftFoot -7.122803 4.212986 -20.155779
LeftToeBase 10.463454 -0.000000 -0.000000
RightUpLeg -3.978759 -7.722841 1.045005
RightLeg 1.576475 -0.000000 -0.000000
RightFoot -5.400627 -4.611458 -15.603711
RightToeBase 0.517342 -0.000000 -0.000000
2168
root -5.044211 33.084919 -3.402054 7.460038 2.032751 -2.232985
Spine -13.525600 12.357843 -7.855027
Head 22.458783 -12.392445 7.421459
LeftShoulder -14.692825 24.119384 5.252465
LeftArm 22.863852 22.854529 -61.658917
LeftForeArm 3.251430 -0.000000 26.727053
LeftHand -25.036455 -0.000000 -5.987859
LeftHandThumb1 -26.253704 0.000000 33.147579
RightShoulder 264.994209 61.940538 195.073105
RightArm -7.558041 16.133661 43.004750
RightForeArm 35.201974 0.000000 64.662534
RightHand -8.592073 -0.000000 -34.821327
RightHandThumb1 -24.326973 -0.000000 -32.862282
LeftUpLeg -1.845585 5.467518 6.758874
LeftLeg -1.975429 -0.000000 0.000000
LeftFoot -7.143867 4.233067 -20.185725
LeftToeBase 10.479720 -0.000000 -0.000000
RightUpLeg -3.870657 -7.751688 1.073999
RightLeg 1.608650 -0.000000 -0.000000
RightFoot -5.423201 -4.535013 -15.589383
RightToeBase 0.505694 -0.000000 -0.000000
2169
root -5.049723 33.085797 -3.390799 7.385880 1.971335 -2.275557
Spine -13.600571 12.330543 -7.953090
Head 22.408245 -12.443992 7.415487
LeftShoulder -14.664934 24.114374 5.264578
LeftArm 22.791548 22.870921 -61.595822
LeftForeArm 3.224474 -0.000000 26.640006
LeftHand -25.017294 -0.000000 -5.998361
LeftHandThumb1 -26.253704 0.000000 33.147579
RightShoulder 265.177050 62.040662 195.248085
RightArm -7.734193 16.092056 42.870526
RightForeArm 35.149329 -0.000000 61.161544
RightHand -9.043811 -0.000000 -36.855793
RightHandThumb1 -24.326973 -0.000000 -32.862282
LeftUpLeg -1.738771 5.489018 6.817156
LeftLeg -1.974438 -0.000000 0.000000
LeftFoot -7.182575 4.244886 -20.234885
LeftToeBase 10.524849 -0.000000 -0.000000
RightUpLeg -3.806800 -7.766257 1.110923
RightLeg 1.653505 -0.000000 -0.000000
RightFoot -5.437311 -4.454796 -15.599943
RightToeBase 0.500570 -0.000000 -0.000000
